<mxfile host="app.diagrams.net" modified="2022-09-09T08:35:58.287Z" agent="5.0 (X11)" etag="n5hW3Irtkwzh6qlf_rKC" version="20.3.0" type="github">
  <diagram id="lNH8VF2VYUELGfLcSpF1" name="第 1 页">
    <mxGraphModel dx="931" dy="534" grid="0" gridSize="10" guides="1" tooltips="1" connect="1" arrows="1" fold="1" page="1" pageScale="1" pageWidth="827" pageHeight="1169" math="0" shadow="0">
      <root>
        <mxCell id="0" />
        <mxCell id="1" parent="0" />
        <mxCell id="IuWSipLadqDdP7I2UX3N-17" value="PM8550" style="shadow=0;dashed=0;align=center;html=1;strokeWidth=1;shape=mxgraph.electrical.logic_gates.dual_inline_ic;labelNames=a,b,c,d,e,f,g,h,i,j,k,l,m,n,o,p,q,r,s,t;fillColor=#ffe6cc;strokeColor=#d79b00;" vertex="1" parent="1">
          <mxGeometry x="68" y="291" width="100" height="200" as="geometry" />
        </mxCell>
        <mxCell id="IuWSipLadqDdP7I2UX3N-18" value="PM8550VS_C" style="shadow=0;dashed=0;align=center;html=1;strokeWidth=1;shape=mxgraph.electrical.logic_gates.dual_inline_ic;labelNames=a,b,c,d,e,f,g,h,i,j,k,l,m,n,o,p,q,r,s,t;fillColor=#f8cecc;strokeColor=#b85450;" vertex="1" parent="1">
          <mxGeometry x="221" y="291" width="100" height="200" as="geometry" />
        </mxCell>
        <mxCell id="IuWSipLadqDdP7I2UX3N-19" value="PM8550VS_D" style="shadow=0;dashed=0;align=center;html=1;strokeWidth=1;shape=mxgraph.electrical.logic_gates.dual_inline_ic;labelNames=a,b,c,d,e,f,g,h,i,j,k,l,m,n,o,p,q,r,s,t;fillColor=#f8cecc;strokeColor=#b85450;" vertex="1" parent="1">
          <mxGeometry x="353" y="291" width="100" height="200" as="geometry" />
        </mxCell>
        <mxCell id="IuWSipLadqDdP7I2UX3N-20" value="PM8550VS_E" style="shadow=0;dashed=0;align=center;html=1;strokeWidth=1;shape=mxgraph.electrical.logic_gates.dual_inline_ic;labelNames=a,b,c,d,e,f,g,h,i,j,k,l,m,n,o,p,q,r,s,t;fillColor=#f8cecc;strokeColor=#b85450;" vertex="1" parent="1">
          <mxGeometry x="501" y="291" width="100" height="200" as="geometry" />
        </mxCell>
        <mxCell id="IuWSipLadqDdP7I2UX3N-21" value="PM8550VS_G" style="shadow=0;dashed=0;align=center;html=1;strokeWidth=1;shape=mxgraph.electrical.logic_gates.dual_inline_ic;labelNames=a,b,c,d,e,f,g,h,i,j,k,l,m,n,o,p,q,r,s,t;fillColor=#f8cecc;strokeColor=#b85450;" vertex="1" parent="1">
          <mxGeometry x="661" y="291" width="100" height="200" as="geometry" />
        </mxCell>
        <mxCell id="IuWSipLadqDdP7I2UX3N-22" value="PM8550VE" style="shadow=0;dashed=0;align=center;html=1;strokeWidth=1;shape=mxgraph.electrical.logic_gates.dual_inline_ic;labelNames=a,b,c,d,e,f,g,h,i,j,k,l,m,n,o,p,q,r,s,t;" vertex="1" parent="1">
          <mxGeometry x="152" y="504" width="100" height="200" as="geometry" />
        </mxCell>
        <mxCell id="IuWSipLadqDdP7I2UX3N-24" value="PM8008_1" style="shadow=0;dashed=0;align=center;html=1;strokeWidth=1;shape=mxgraph.electrical.logic_gates.dual_inline_ic;labelNames=a,b,c,d,e,f,g,h,i,j,k,l,m,n,o,p,q,r,s,t;" vertex="1" parent="1">
          <mxGeometry x="284" y="510" width="100" height="200" as="geometry" />
        </mxCell>
        <mxCell id="IuWSipLadqDdP7I2UX3N-25" value="&lt;div&gt;PM8008_2&lt;/div&gt;" style="shadow=0;dashed=0;align=center;html=1;strokeWidth=1;shape=mxgraph.electrical.logic_gates.dual_inline_ic;labelNames=a,b,c,d,e,f,g,h,i,j,k,l,m,n,o,p,q,r,s,t;points=[[0,0.05,0,0,0],[0,0.15,0,0,0],[0,0.25,0,0,0],[0,0.35,0,0,0],[0,0.45,0,0,0],[0,0.55,0,0,0],[0,0.65,0,0,0],[0,0.75,0,0,0],[0,0.85,0,0,0],[0,0.95,0,0,0],[1,0.05,0,0,0],[1,0.15,0,0,0],[1,0.25,0,0,0],[1,0.35,0,0,0],[1,0.45,0,0,0],[1,0.55,0,0,0],[1,0.65,0,0,0],[1,0.75,0,0,0],[1,0.85,0,0,0],[1,0.95,0,0,0]];" vertex="1" parent="1">
          <mxGeometry x="490" y="510" width="98" height="203" as="geometry" />
        </mxCell>
      </root>
    </mxGraphModel>
  </diagram>
</mxfile>
